<?xml version="1.0" standalone="no"?>
<!DOCTYPE svg PUBLIC "-//W3C//DTD SVG 20010904//EN"
 "http://www.w3.org/TR/2001/REC-SVG-20010904/DTD/svg10.dtd">
<svg version="1.0" xmlns="http://www.w3.org/2000/svg"
 width="516.000000pt" height="516.000000pt" viewBox="0 0 516.000000 516.000000"
 preserveAspectRatio="xMidYMid meet">
<metadata>
Created by potrace 1.14, written by Peter Selinger 2001-2017
</metadata>
<g transform="translate(0.000000,516.000000) scale(0.100000,-0.100000)"
fill="#000000" stroke="none">
<path d="M2853 4338 c-40 -40 -72 -77 -72 -81 0 -5 -3 -12 -7 -15 -4 -4 -3 0
1 8 8 13 7 13 -8 1 -18 -14 -24 -36 -7 -26 22 13 7 -3 -52 -60 -35 -33 -49
-45 -33 -26 24 27 26 32 10 26 -11 -4 -189 -7 -395 -7 -1021 2 -2040 3 -2080
3 l-46 -1 3 -1062 c1 -585 2 -1357 2 -1715 l1 -653 2095 0 2094 0 78 49 c212
135 259 169 348 254 178 169 289 362 330 575 21 110 22 1535 1 1646 -36 185
-130 349 -289 505 -134 131 -228 195 -388 263 -165 71 -258 99 -369 113 -30 3
-73 9 -95 12 -22 3 -266 5 -542 5 l-502 0 -3 129 -3 130 -72 -73z m67 49 c0
-1 -26 -27 -57 -57 l-58 -55 55 58 c50 53 60 62 60 54z m-300 -320 c0 -1 -24
-25 -52 -52 l-53 -50 50 53 c46 48 55 57 55 49z m-120 -130 c0 -1 -24 -25 -52
-52 l-53 -50 50 53 c46 48 55 57 55 49z m-120 -130 c0 -1 -24 -25 -52 -52
l-53 -50 50 53 c46 48 55 57 55 49z m-120 -130 c0 -1 -24 -25 -52 -52 l-53
-50 50 53 c46 48 55 57 55 49z m-160 -172 c-24 -25 -46 -45 -49 -45 -3 0 15
20 39 45 24 25 46 45 49 45 3 0 -15 -20 -39 -45z m-80 -88 c0 -1 -24 -25 -52
-52 l-53 -50 50 53 c46 48 55 57 55 49z m-140 -973 l0 -832 -445 1 -445 1 0
828 0 828 163 2 c89 2 289 3 445 4 l282 1 0 -833z m2337 813 c4 -4 5 -1639 1
-1642 -7 -6 -71 -7 -505 -6 l-453 1 0 665 c0 366 -3 665 -6 665 -4 0 -48 -43
-98 -97 -50 -53 -117 -124 -150 -157 -32 -34 -64 -69 -71 -80 -11 -15 -14 36
-14 320 l-1 339 647 -3 c356 -1 648 -4 650 -5z m-1497 -880 c0 -2 -10 -12 -22
-23 l-23 -19 19 23 c18 21 26 27 26 19z m-823 -99 c-3 -8 -6 -5 -6 6 -1 11 2
17 5 13 3 -3 4 -12 1 -19z m0 -120 c-3 -8 -6 -5 -6 6 -1 11 2 17 5 13 3 -3 4
-12 1 -19z m0 -80 c-3 -7 -5 -2 -5 12 0 14 2 19 5 13 2 -7 2 -19 0 -25z m523
-11 c0 -1 -46 -47 -102 -102 l-103 -100 100 103 c93 95 105 107 105 99z m-523
-29 c-3 -8 -6 -5 -6 6 -1 11 2 17 5 13 3 -3 4 -12 1 -19z m0 -70 c-3 -8 -6 -5
-6 6 -1 11 2 17 5 13 3 -3 4 -12 1 -19z m0 -40 c-3 -8 -6 -5 -6 6 -1 11 2 17
5 13 3 -3 4 -12 1 -19z m45 -308 c32 0 49 7 72 28 l31 27 -29 -32 c-26 -29
-36 -33 -78 -33 l-48 0 2 153 2 152 3 -147 4 -148 41 0z m177 132 c-30 -32
-56 -56 -58 -55 -5 4 100 113 108 113 2 0 -20 -26 -50 -58z"/>
<path d="M2735 4212 c-5 -4 -17 -16 -25 -27 -11 -15 -7 -14 13 4 24 22 32 31
25 31 -2 0 -7 -4 -13 -8z"/>
</g>
</svg>
